<?xml version="1.0" encoding="UTF-8"?>
<svg id="Layer_1" data-name="Layer 1" xmlns="http://www.w3.org/2000/svg" xmlns:xlink="http://www.w3.org/1999/xlink" viewBox="0 0 83.59 150">
  <defs>
    <style>
      .cls-1 {
        fill: url(#linear-gradient);
      }

      .cls-2 {
        fill: url(#radial-gradient-2);
      }

      .cls-3 {
        fill: url(#linear-gradient-2);
      }

      .cls-4 {
        fill: url(#radial-gradient);
      }
    </style>
    <linearGradient id="linear-gradient" x1="0" y1="142.57" x2="67.13" y2="142.57" gradientUnits="userSpaceOnUse">
      <stop offset="0" stop-color="#000" stop-opacity="0"/>
      <stop offset="1" stop-color="#000" stop-opacity=".5"/>
    </linearGradient>
    <linearGradient id="linear-gradient-2" x1="46.65" y1="99.47" x2="57.37" y2="99.47" gradientUnits="userSpaceOnUse">
      <stop offset="0" stop-color="#222a29"/>
      <stop offset=".2" stop-color="#817869"/>
      <stop offset=".42" stop-color="#616160"/>
      <stop offset=".68" stop-color="#beab9b"/>
      <stop offset="1" stop-color="#222a29"/>
    </linearGradient>
    <radialGradient id="radial-gradient" cx="63.19" cy="26.68" fx="63.19" fy="26.68" r="36.48" gradientUnits="userSpaceOnUse">
      <stop offset="0" stop-color="#fccbc2"/>
      <stop offset=".54" stop-color="#f25e50"/>
      <stop offset="1" stop-color="#a7291d"/>
    </radialGradient>
    <radialGradient id="radial-gradient-2" cx="63.19" cy="26.68" fx="63.19" fy="26.68" r="36.48" gradientUnits="userSpaceOnUse">
      <stop offset="0" stop-color="#fccbc2"/>
      <stop offset=".06" stop-color="#fab7ad"/>
      <stop offset=".22" stop-color="#f5877b"/>
      <stop offset=".35" stop-color="#f3695b"/>
      <stop offset=".42" stop-color="#f25e50"/>
      <stop offset=".66" stop-color="#d5493c"/>
      <stop offset="1" stop-color="#a7291d"/>
    </radialGradient>
  </defs>
  <g>
    <ellipse class="cls-1" cx="33.56" cy="142.57" rx="33.56" ry="7.43"/>
    <path class="cls-3" d="m57.37,56.26c0-.92-2.4-1.67-5.36-1.67s-5.36.75-5.36,1.67h0v86.3h.03s-.03.08-.03.11c0,.92,2.4,1.67,5.36,1.67s5.36-.75,5.36-1.67c0-.03-.03-.07-.03-.1h.03V56.26Z"/>
    <circle class="cls-4" cx="52.01" cy="31.58" r="31.58"/>
  </g>
  <circle class="cls-2" cx="52.01" cy="31.58" r="31.58"/>
</svg>